<svg xmlns="http://www.w3.org/2000/svg" xmlns:xlink="http://www.w3.org/1999/xlink" version="1.1" width="1000" height="1000" viewBox="0 0 1000 1000" xml:space="preserve">
<g transform="matrix(26.3356 0 0 26.3356 500.0003 389.1501)" id="798655">
<path style="stroke: none; stroke-width: 1; stroke-dasharray: none; stroke-linecap: butt; stroke-dashoffset: 0; stroke-linejoin: miter; stroke-miterlimit: 4; is-custom-font: none; font-file-url: none; fill: rgb(78,168,222); fill-rule: nonzero; opacity: 1;" transform=" translate(-11.0165, -23.7944)" d="M 11.0215 12.933 C 14.1472 16.9011 15.8158 21.7944 15.7553 26.8155 V 28.0141 L 16.7865 28.6416 C 18.119 29.4482 19.1127 30.6993 19.5866 32.1669 C 19.1705 31.8605 18.7352 31.5803 18.2833 31.3278 L 15.5333 29.7838 L 15.0391 32.9001 C 14.9963 33.1755 14.9389 33.4485 14.8672 33.718 H 7.16151 C 7.04692 33.3655 6.95382 33.0129 6.86789 32.6463 L 6.24484 29.8261 L 3.70968 31.2362 C 3.28615 31.473 2.87723 31.7344 2.48507 32.0188 C 2.96824 30.5682 3.94123 29.3242 5.24224 28.4935 L 6.22336 27.866 V 26.7521 C 6.24106 21.7513 7.92967 16.8952 11.0287 12.933 H 11.0215 Z M 11.0287 10 C 10.868 10.0004 10.7128 10.058 10.5918 10.1622 L 10.5274 10.2186 C 6.39778 14.7656 4.10466 20.6454 4.08208 26.745 C 2.32967 27.8643 1.03251 29.5543 0.417263 31.5197 C -0.197979 33.485 -0.0921719 35.6007 0.716194 37.4971 C 1.56776 35.6455 2.99131 34.1058 4.7839 33.0975 C 4.96368 33.8642 5.2031 34.6161 5.50005 35.3467 C 5.53771 35.4871 5.62118 35.6114 5.73763 35.7006 C 5.85408 35.7898 5.99706 35.8388 6.14458 35.8402 H 16.0847 C 16.2852 35.8402 16.4857 35.6498 16.586 35.3537 C 16.8758 34.6592 17.0778 33.9322 17.1875 33.1892 C 18.9836 34.1932 20.4083 35.7342 21.2553 37.5887 C 22.1124 35.7017 22.2451 33.5727 21.6287 31.5967 C 21.0124 29.6206 19.6888 27.9319 17.9037 26.8437 C 17.9745 20.7082 15.6935 14.7718 11.5157 10.2186 C 11.4535 10.1501 11.3773 10.0952 11.2922 10.0576 C 11.2071 10.0199 11.1149 10.0003 11.0215 10 H 11.0287 Z" stroke-linecap="round"/>
</g>
<g transform="matrix(26.3356 0 0 26.3356 500.1459 379.216)" id="106934">
<path style="stroke: none; stroke-width: 1; stroke-dasharray: none; stroke-linecap: butt; stroke-dashoffset: 0; stroke-linejoin: miter; stroke-miterlimit: 4; is-custom-font: none; font-file-url: none; fill: rgb(78,168,222); fill-rule: nonzero; opacity: 1;" transform=" translate(-11.022, -23.4171)" d="M 11.0216 26.1598 C 10.4715 26.1598 9.93376 25.9995 9.47611 25.699 C 9.01846 25.3986 8.6614 24.9715 8.44993 24.4716 C 8.23847 23.9716 8.18206 23.4213 8.28782 22.8898 C 8.39358 22.3584 8.65678 21.8697 9.04423 21.4853 C 9.43169 21.1009 9.92606 20.838 10.465 20.7298 C 11.004 20.6216 11.5634 20.6729 12.0728 20.8773 C 12.5822 21.0816 13.0188 21.4298 13.3275 21.8781 C 13.6361 22.3263 13.8031 22.8545 13.8074 23.396 C 13.8159 23.7469 13.7542 24.0961 13.6256 24.4235 C 13.4971 24.751 13.3043 25.0503 13.0582 25.3043 C 12.8121 25.5583 12.5176 25.7622 12.1915 25.9041 C 11.8654 26.0461 11.5141 26.1234 11.1576 26.1316 C 11.1126 26.1387 11.0666 26.1387 11.0216 26.1316 V 26.1598 Z" stroke-linecap="round"/>
</g>
<g transform="matrix(26.3356 0 0 26.3356 602.1764 842.6642)" id="201314">
<path style="stroke: none; stroke-width: 1; stroke-dasharray: none; stroke-linecap: butt; stroke-dashoffset: 0; stroke-linejoin: miter; stroke-miterlimit: 4; is-custom-font: none; font-file-url: none; fill: rgb(94,96,206); fill-rule: nonzero; opacity: 1;" transform=" translate(-14.8963, -41.015)" d="M 14.8959 37.5958 C 14.7167 37.5901 14.5382 37.6198 14.3708 37.683 C 14.2034 37.7462 14.0505 37.8416 13.9211 37.9638 C 13.7917 38.086 13.6884 38.2323 13.6172 38.3943 C 13.546 38.5563 13.5084 38.7307 13.5066 38.9072 V 43.067 C 13.5066 43.4297 13.653 43.7776 13.9135 44.0342 C 14.1741 44.2907 14.5274 44.4348 14.8959 44.4348 C 15.2644 44.4348 15.6178 44.2907 15.8783 44.0342 C 16.1389 43.7776 16.2852 43.4297 16.2852 43.067 V 38.9636 C 16.291 38.7877 16.2611 38.6126 16.1973 38.4482 C 16.1336 38.2839 16.0372 38.1337 15.9139 38.0064 C 15.7906 37.879 15.6428 37.7772 15.4791 37.7067 C 15.3154 37.6362 15.139 37.5985 14.9604 37.5958 H 14.8959 Z" stroke-linecap="round"/>
</g>
<g transform="matrix(26.3356 0 0 26.3356 397.3558 842.6486)" id="39299">
<path style="stroke: none; stroke-width: 1; stroke-dasharray: none; stroke-linecap: butt; stroke-dashoffset: 0; stroke-linejoin: miter; stroke-miterlimit: 4; is-custom-font: none; font-file-url: none; fill: rgb(94,96,206); fill-rule: nonzero; opacity: 1;" transform=" translate(-7.1189, -41.0144)" d="M 7.16154 37.5958 C 6.97931 37.5863 6.797 37.613 6.62546 37.6743 C 6.45392 37.7356 6.29665 37.8302 6.16302 37.9526 C 6.02939 38.0749 5.92213 38.2225 5.84761 38.3865 C 5.77309 38.5505 5.73284 38.7275 5.72925 38.9072 V 43.067 C 5.72925 43.4297 5.87562 43.7777 6.13617 44.0342 C 6.39672 44.2907 6.7501 44.4348 7.11857 44.4348 C 7.48704 44.4348 7.84042 44.2907 8.10097 44.0342 C 8.36152 43.7777 8.50789 43.4297 8.50789 43.067 V 38.9636 C 8.51362 38.7877 8.48373 38.6126 8.41998 38.4482 C 8.35623 38.2839 8.25989 38.1337 8.13658 38.0064 C 8.01326 37.879 7.86544 37.7772 7.70173 37.7067 C 7.53802 37.6362 7.36169 37.5985 7.18302 37.5958 H 7.16154 Z" stroke-linecap="round"/>
</g>
<g transform="matrix(26.3356 0 0 26.3356 497.5028 863.3716)" id="832053">
<path style="stroke: none; stroke-width: 1; stroke-dasharray: none; stroke-linecap: butt; stroke-dashoffset: 0; stroke-linejoin: miter; stroke-miterlimit: 4; is-custom-font: none; font-file-url: none; fill: rgb(94,96,206); fill-rule: nonzero; opacity: 1;" transform=" translate(-10.9216, -41.8012)" d="M 10.9213 37.5958 C 10.7426 37.592 10.5649 37.623 10.3984 37.6869 C 10.2318 37.7507 10.0797 37.8463 9.95068 37.9681 C 9.82167 38.0899 9.71828 38.2355 9.64644 38.3966 C 9.5746 38.5577 9.5357 38.7312 9.53198 38.9072 V 44.6392 C 9.53198 45.002 9.67836 45.3499 9.93891 45.6064 C 10.1995 45.8629 10.5528 46.007 10.9213 46.007 C 11.2898 46.007 11.6432 45.8629 11.9037 45.6064 C 12.1643 45.3499 12.3106 45.002 12.3106 44.6392 V 38.9988 C 12.3164 38.823 12.2865 38.6478 12.2227 38.4835 C 12.159 38.3191 12.0626 38.1689 11.9393 38.0416 C 11.816 37.9143 11.6682 37.8124 11.5045 37.7419 C 11.3408 37.6714 11.1644 37.6337 10.9858 37.631 L 10.9213 37.5958 Z" stroke-linecap="round"/>
</g>
</svg>